<svg width="24" height="24" viewBox="0 0 24 24" fill="none" xmlns="http://www.w3.org/2000/svg">
<path d="M8.89756 18.2113C10.8053 19.0869 12.9999 19.3241 15.0859 18.8801C17.1718 18.436 19.0119 17.34 20.2746 15.7895C21.5373 14.239 22.1395 12.3359 21.9727 10.4233C21.806 8.51062 20.8812 6.71415 19.365 5.3576C17.8489 4.00104 15.8411 3.17361 13.7034 3.02439C11.5657 2.87518 9.43881 3.41401 7.70587 4.54377C5.97294 5.67354 4.74797 7.31994 4.25171 9.18631C3.75544 11.0527 4.02052 13.0163 4.99917 14.7232L3 20L8.89756 18.2113Z" stroke="#353535" stroke-width="2" stroke-linecap="round" stroke-linejoin="round"/>
<path d="M9 11H9.01" stroke="#353535" stroke-width="2" stroke-linecap="round" stroke-linejoin="round"/>
<path d="M13 11H13.01" stroke="#353535" stroke-width="2" stroke-linecap="round" stroke-linejoin="round"/>
<path d="M17 11H17.01" stroke="#353535" stroke-width="2" stroke-linecap="round" stroke-linejoin="round"/>
</svg>