<svg width="50" height="50" viewBox="0 0 50 50" fill="none" xmlns="http://www.w3.org/2000/svg">
<rect x="0.5" y="0.5" width="49" height="49" rx="7.5" stroke="white"/>
<path d="M34.44 24.0497L25.25 33.2397C24.1241 34.3655 22.5972 34.998 21.005 34.998C19.4128 34.998 17.8858 34.3655 16.76 33.2397C15.6341 32.1138 15.0016 30.5869 15.0016 28.9947C15.0016 27.4025 15.6341 25.8755 16.76 24.7497L25.33 16.1797C26.0805 15.4278 27.0991 15.0048 28.1614 15.0039C29.2238 15.003 30.2431 15.4241 30.995 16.1747C31.7469 16.9252 32.1698 17.9437 32.1707 19.0061C32.1717 20.0685 31.7505 21.0878 31 21.8397L22.41 30.4097C22.0347 30.7849 21.5257 30.9958 20.995 30.9958C20.4643 30.9958 19.9553 30.7849 19.58 30.4097C19.2047 30.0344 18.9939 29.5254 18.9939 28.9947C18.9939 28.4639 19.2047 27.9549 19.58 27.5797L28.07 19.0997" stroke="white" stroke-width="2" stroke-linecap="round" stroke-linejoin="round"/>
</svg>
