<svg width="50" height="51" viewBox="0 0 50 51" fill="none" xmlns="http://www.w3.org/2000/svg">
<rect y="0.5" width="50" height="50" rx="8" fill="#FF7F50"/>
<path d="M34.44 24.5497L25.25 33.7397C24.1242 34.8655 22.5972 35.498 21.005 35.498C19.4129 35.498 17.8859 34.8655 16.76 33.7397C15.6342 32.6138 15.0017 31.0869 15.0017 29.4947C15.0017 27.9025 15.6342 26.3755 16.76 25.2497L25.33 16.6797C26.0806 15.9278 27.0991 15.5048 28.1615 15.5039C29.2239 15.503 30.2432 15.9241 30.995 16.6747C31.7469 17.4252 32.1699 18.4437 32.1708 19.5061C32.1717 20.5685 31.7506 21.5878 31 22.3397L22.41 30.9097C22.0348 31.2849 21.5258 31.4958 20.995 31.4958C20.4643 31.4958 19.9553 31.2849 19.58 30.9097C19.2048 30.5344 18.9939 30.0254 18.9939 29.4947C18.9939 28.9639 19.2048 28.4549 19.58 28.0797L28.07 19.5997" stroke="white" stroke-width="2" stroke-linecap="round" stroke-linejoin="round"/>
</svg>
