<svg width="20" height="22" viewBox="0 0 20 22" fill="none" xmlns="http://www.w3.org/2000/svg">
<path d="M1 8.48908C1 8.18049 1.14247 7.88919 1.38606 7.69973L9.38606 1.47751C9.74717 1.19665 10.2528 1.19665 10.6139 1.47751L18.6139 7.69973C18.8575 7.88919 19 8.18049 19 8.48908V19C19 19.5304 18.7893 20.0391 18.4142 20.4142C18.0391 20.7893 17.5304 21 17 21H3C2.46957 21 1.96086 20.7893 1.58579 20.4142C1.21071 20.0391 1 19.5304 1 19V8.48908Z" stroke="white" stroke-width="2" stroke-linecap="round" stroke-linejoin="round"/>
<path d="M7 20V13C7 11.3431 8.34315 10 10 10V10C11.6569 10 13 11.3431 13 13V20" stroke="white" stroke-width="2" stroke-linecap="round" stroke-linejoin="round"/>
</svg>
