<svg width="78" height="78" viewBox="0 0 78 78" fill="none" xmlns="http://www.w3.org/2000/svg">
<g clip-path="url(#clip0_534_1633)" filter="url(#filter0_d_534_1633)">
<circle cx="39" cy="35" r="35" fill="url(#paint0_linear_534_1633)"/>
<g clip-path="url(#clip1_534_1633)">
<circle cx="39" cy="35" r="19.5" fill="url(#paint1_linear_534_1633)" stroke="url(#paint2_radial_534_1633)"/>
<circle cx="51" cy="33" r="5" fill="url(#paint3_radial_534_1633)"/>
<circle cx="27" cy="33" r="5" fill="url(#paint4_radial_534_1633)"/>
<path d="M26 38C26 38 27.625 45.5 39 45.5C50.375 45.5 52 38 52 38" stroke="#FF7A00" stroke-linecap="round"/>
<ellipse cx="33.5" cy="31.5" rx="1.5" ry="2.5" fill="#824B18"/>
<ellipse cx="44.5" cy="31.5" rx="1.5" ry="2.5" fill="#824B18"/>
<path d="M37.7679 7C38.5377 5.66667 40.4623 5.66667 41.2321 7L43.3971 10.75C44.1669 12.0833 43.2047 13.75 41.6651 13.75H37.3349C35.7953 13.75 34.8331 12.0833 35.6029 10.75L37.7679 7Z" fill="url(#paint5_linear_534_1633)"/>
<path d="M41.2321 63C40.4623 64.3333 38.5377 64.3333 37.7679 63L35.6029 59.25C34.8331 57.9167 35.7953 56.25 37.3349 56.25L41.6651 56.25C43.2047 56.25 44.1669 57.9167 43.3971 59.25L41.2321 63Z" fill="url(#paint6_linear_534_1633)"/>
<path d="M58.0743 13.9771C59.5615 13.5787 60.9223 14.9395 60.5238 16.4266L59.4031 20.6092C59.0046 22.0964 57.1457 22.5945 56.0571 21.5058L52.9952 18.4439C51.9065 17.3553 52.4046 15.4963 53.8918 15.0979L58.0743 13.9771Z" fill="url(#paint7_linear_534_1633)"/>
<path d="M20.9257 56.0229C19.4385 56.4213 18.0777 55.0605 18.4762 53.5734L19.5969 49.3908C19.9954 47.9036 21.8543 47.4055 22.9429 48.4942L26.0048 51.5561C27.0935 52.6447 26.5954 54.5037 25.1082 54.9021L20.9257 56.0229Z" fill="url(#paint8_linear_534_1633)"/>
<path d="M67.5 33.2679C68.8333 34.0377 68.8333 35.9623 67.5 36.7321L63.75 38.8971C62.4167 39.6669 60.75 38.7047 60.75 37.1651L60.75 32.8349C60.75 31.2953 62.4167 30.3331 63.75 31.1029L67.5 33.2679Z" fill="url(#paint9_linear_534_1633)"/>
<path d="M11.5 36.7321C10.1667 35.9623 10.1667 34.0377 11.5 33.2679L15.25 31.1029C16.5833 30.3331 18.25 31.2953 18.25 32.8349L18.25 37.1651C18.25 38.7047 16.5833 39.6669 15.25 38.8971L11.5 36.7321Z" fill="url(#paint10_linear_534_1633)"/>
<path d="M60.5238 53.5743C60.9223 55.0615 59.5615 56.4223 58.0743 56.0238L53.8918 54.9031C52.4046 54.5046 51.9065 52.6457 52.9952 51.5571L56.057 48.4952C57.1457 47.4065 59.0046 47.9046 59.4031 49.3918L60.5238 53.5743Z" fill="url(#paint11_linear_534_1633)"/>
<path d="M18.4762 16.4257C18.0777 14.9385 19.4385 13.5777 20.9257 13.9762L25.1082 15.0969C26.5954 15.4954 27.0935 17.3543 26.0048 18.4429L22.943 21.5048C21.8543 22.5935 19.9954 22.0954 19.5969 20.6082L18.4762 16.4257Z" fill="url(#paint12_linear_534_1633)"/>
<path d="M50.1392 25.66C52.4486 26.619 55.1052 26.8788 57.6303 26.3924C60.1554 25.9061 62.3829 24.7057 63.9114 23.0075C65.4399 21.3093 66.1689 19.225 65.967 17.1302C65.7651 15.0354 64.6456 13.0679 62.8103 11.5821C60.975 10.0964 58.5445 9.19014 55.9568 9.02672C53.3691 8.8633 50.7943 9.45344 48.6966 10.6908C46.5988 11.9282 45.116 13.7314 44.5152 15.7755C43.9145 17.8196 44.2354 19.9702 45.4201 21.8397L43 27.619L50.1392 25.66Z" fill="white"/>
<circle cx="1.09524" cy="1.09524" r="1.09524" transform="matrix(1 0 0 -1 48.4761 18.8574)" fill="#FF8051"/>
<circle cx="1.09524" cy="1.09524" r="1.09524" transform="matrix(1 0 0 -1 53.9524 18.8574)" fill="#FF8051"/>
<circle cx="1.09524" cy="1.09524" r="1.09524" transform="matrix(1 0 0 -1 59.4285 18.8574)" fill="#FF8051"/>
</g>
</g>
<defs>
<filter id="filter0_d_534_1633" x="0" y="0" width="78" height="78" filterUnits="userSpaceOnUse" color-interpolation-filters="sRGB">
<feFlood flood-opacity="0" result="BackgroundImageFix"/>
<feColorMatrix in="SourceAlpha" type="matrix" values="0 0 0 0 0 0 0 0 0 0 0 0 0 0 0 0 0 0 127 0" result="hardAlpha"/>
<feOffset dy="4"/>
<feGaussianBlur stdDeviation="2"/>
<feComposite in2="hardAlpha" operator="out"/>
<feColorMatrix type="matrix" values="0 0 0 0 0 0 0 0 0 0 0 0 0 0 0 0 0 0 0.25 0"/>
<feBlend mode="normal" in2="BackgroundImageFix" result="effect1_dropShadow_534_1633"/>
<feBlend mode="normal" in="SourceGraphic" in2="effect1_dropShadow_534_1633" result="shape"/>
</filter>
<linearGradient id="paint0_linear_534_1633" x1="47.5" y1="56" x2="18" y2="14.5" gradientUnits="userSpaceOnUse">
<stop stop-color="#FF7F50"/>
<stop offset="1" stop-color="#FFA07A"/>
</linearGradient>
<linearGradient id="paint1_linear_534_1633" x1="39" y1="15" x2="39" y2="55" gradientUnits="userSpaceOnUse">
<stop stop-color="white"/>
<stop offset="0.345" stop-color="#FFF848"/>
<stop offset="0.66" stop-color="#FFD630"/>
<stop offset="1" stop-color="#FFD076"/>
</linearGradient>
<radialGradient id="paint2_radial_534_1633" cx="0" cy="0" r="1" gradientUnits="userSpaceOnUse" gradientTransform="translate(39 34.1667) rotate(71.565) scale(21.0819 21.9985)">
<stop offset="0.896007" stop-color="#FFD632" stop-opacity="0.2"/>
<stop offset="1" stop-color="#FF6F06" stop-opacity="0.7"/>
</radialGradient>
<radialGradient id="paint3_radial_534_1633" cx="0" cy="0" r="1" gradientUnits="userSpaceOnUse" gradientTransform="translate(51 33) rotate(90) scale(5)">
<stop stop-color="#FF7C7C"/>
<stop offset="1" stop-color="#FF7C7C" stop-opacity="0"/>
</radialGradient>
<radialGradient id="paint4_radial_534_1633" cx="0" cy="0" r="1" gradientUnits="userSpaceOnUse" gradientTransform="translate(27 33) rotate(90) scale(5)">
<stop stop-color="#FF7C7C"/>
<stop offset="1" stop-color="#FF7C7C" stop-opacity="0"/>
</radialGradient>
<linearGradient id="paint5_linear_534_1633" x1="39.5" y1="4" x2="39.5" y2="17" gradientUnits="userSpaceOnUse">
<stop stop-color="#FFDB7B"/>
<stop offset="1" stop-color="#FFBE48"/>
</linearGradient>
<linearGradient id="paint6_linear_534_1633" x1="39.5" y1="66" x2="39.5" y2="53" gradientUnits="userSpaceOnUse">
<stop stop-color="#FFDB7B"/>
<stop offset="1" stop-color="#FFBE48"/>
</linearGradient>
<linearGradient id="paint7_linear_534_1633" x1="61.4204" y1="13.0806" x2="52.228" y2="22.273" gradientUnits="userSpaceOnUse">
<stop stop-color="#FFDB7B"/>
<stop offset="1" stop-color="#FFBE48"/>
</linearGradient>
<linearGradient id="paint8_linear_534_1633" x1="17.5796" y1="56.9194" x2="26.772" y2="47.727" gradientUnits="userSpaceOnUse">
<stop stop-color="#FFDB7B"/>
<stop offset="1" stop-color="#FFBE48"/>
</linearGradient>
<linearGradient id="paint9_linear_534_1633" x1="70.5" y1="35" x2="57.5" y2="35" gradientUnits="userSpaceOnUse">
<stop stop-color="#FFDB7B"/>
<stop offset="1" stop-color="#FFBE48"/>
</linearGradient>
<linearGradient id="paint10_linear_534_1633" x1="8.5" y1="35" x2="21.5" y2="35" gradientUnits="userSpaceOnUse">
<stop stop-color="#FFDB7B"/>
<stop offset="1" stop-color="#FFBE48"/>
</linearGradient>
<linearGradient id="paint11_linear_534_1633" x1="61.4204" y1="56.9204" x2="52.228" y2="47.728" gradientUnits="userSpaceOnUse">
<stop stop-color="#FFDB7B"/>
<stop offset="1" stop-color="#FFBE48"/>
</linearGradient>
<linearGradient id="paint12_linear_534_1633" x1="17.5796" y1="13.0796" x2="26.772" y2="22.272" gradientUnits="userSpaceOnUse">
<stop stop-color="#FFDB7B"/>
<stop offset="1" stop-color="#FFBE48"/>
</linearGradient>
<clipPath id="clip0_534_1633">
<rect width="70" height="70" fill="white" transform="translate(4)"/>
</clipPath>
<clipPath id="clip1_534_1633">
<rect width="60" height="60" fill="white" transform="translate(9 5)"/>
</clipPath>
</defs>
</svg>
