<svg width="19" height="21" viewBox="0 0 19 21" fill="none" xmlns="http://www.w3.org/2000/svg">
<path d="M16.8309 14.8333H2.16913C2.26618 14.678 2.36392 14.5114 2.46123 14.333C3.34207 12.7181 4.16667 10.1751 4.16667 6.33333C4.16667 4.91885 4.72857 3.56229 5.72876 2.5621C6.72896 1.5619 8.08551 1 9.5 1C10.9145 1 12.271 1.5619 13.2712 2.5621C14.2714 3.56229 14.8333 4.91884 14.8333 6.33333C14.8333 10.1751 15.6579 12.7181 16.5388 14.333C16.6361 14.5114 16.7338 14.678 16.8309 14.8333Z" stroke="black" stroke-width="2" stroke-linecap="round" stroke-linejoin="round"/>
<path d="M11.4225 17.8887C11.0612 18.582 10.3358 19.0553 9.49992 19.0553C8.66401 19.0553 7.93866 18.582 7.57732 17.8887H9.49992H11.4225Z" stroke="black" stroke-width="2"/>
</svg>
