<svg width="48" height="48" viewBox="0 0 48 48" fill="none" xmlns="http://www.w3.org/2000/svg">
<rect width="48" height="48" fill="white"/>
<path d="M24 15C22.8065 16.1935 22.136 17.8122 22.136 19.5C22.136 21.1878 22.8065 22.8065 24 24C25.1935 25.1935 26.8122 25.864 28.5 25.864C30.1878 25.864 31.8065 25.1935 33 24C33 25.78 32.4722 27.5201 31.4832 29.0001C30.4943 30.4802 29.0887 31.6337 27.4442 32.3149C25.7996 32.9961 23.99 33.1743 22.2442 32.8271C20.4984 32.4798 18.8947 31.6226 17.636 30.364C16.3774 29.1053 15.5202 27.5016 15.1729 25.7558C14.8257 24.01 15.0039 22.2004 15.6851 20.5558C16.3663 18.9113 17.5198 17.5057 18.9999 16.5168C20.4799 15.5278 22.22 15 24 15Z" stroke="black" stroke-width="2" stroke-linecap="round" stroke-linejoin="round"/>
</svg>
