<svg width="48" height="48" viewBox="0 0 48 48" fill="none" xmlns="http://www.w3.org/2000/svg">
<rect width="48" height="48" fill="white"/>
<path d="M31.8309 28.8333H17.1691C17.2662 28.678 17.3639 28.5114 17.4612 28.333C18.3421 26.7181 19.1667 24.1751 19.1667 20.3333C19.1667 18.9188 19.7286 17.5623 20.7288 16.5621C21.729 15.5619 23.0855 15 24.5 15C25.9145 15 27.271 15.5619 28.2712 16.5621C29.2714 17.5623 29.8333 18.9188 29.8333 20.3333C29.8333 24.1751 30.6579 26.7181 31.5388 28.333C31.6361 28.5114 31.7338 28.678 31.8309 28.8333Z" stroke="black" stroke-width="2" stroke-linecap="round" stroke-linejoin="round"/>
<path d="M26.4225 31.8887C26.0612 32.582 25.3358 33.0553 24.4999 33.0553C23.664 33.0553 22.9387 32.582 22.5773 31.8887H24.4999H26.4225Z" stroke="black" stroke-width="2"/>
</svg>
